/* XPM */
static char *_2dbc7f6611d44b5acc2fff59859a9abQSYvf6w1V4Vz9jjd[] = {
/* columns rows colors chars-per-pixel */
"50 50 115 2 ",
"   c #000A0B",
".  c #170F0E",
"X  c #1D0F0F",
"o  c #001615",
"O  c #001817",
"+  c #011718",
"@  c #0F1718",
"#  c #00191A",
"$  c #0B1B1C",
"%  c #151B1C",
"&  c #1A1B1B",
"*  c #2E0B0C",
"=  c #320B0C",
"-  c #3D0A0B",
";  c #2F1011",
":  c #2C1817",
">  c #241B1B",
",  c #2D1B1E",
"<  c #331012",
"1  c #391011",
"2  c #371518",
"3  c #3B1618",
"4  c #34191B",
"5  c #39181A",
"6  c #430B0C",
"7  c #4E0C0F",
"8  c #540D10",
"9  c #5A0D11",
"0  c #441314",
"q  c #4B1314",
"w  c #451A1C",
"e  c #521315",
"r  c #5D1114",
"t  c #55181A",
"y  c #591A1D",
"u  c #640F14",
"i  c #651014",
"p  c #6A1014",
"a  c #631519",
"s  c #63191C",
"d  c #6A191D",
"f  c #731317",
"g  c #73171B",
"h  c #7D151C",
"j  c #72181C",
"k  c #7C191D",
"l  c #5E1F23",
"z  c #601F23",
"x  c #6C1B20",
"c  c #761F24",
"v  c #781F24",
"b  c #752024",
"n  c #7D2025",
"m  c #86161D",
"M  c #8A161E",
"N  c #87181E",
"B  c #8E181E",
"V  c #90171E",
"C  c #92181F",
"Z  c #8D1721",
"A  c #811E24",
"S  c #941920",
"D  c #9C1920",
"F  c #A61C23",
"G  c #AE1D25",
"H  c #B31E26",
"J  c #BD1F27",
"K  c #B51D28",
"L  c #BA1E28",
"P  c #812025",
"I  c #AD2026",
"U  c #A9232A",
"Y  c #BC222A",
"T  c #C4222B",
"R  c #C5262D",
"E  c #C8212B",
"W  c #C9212B",
"Q  c #CD232B",
"!  c #D1242D",
"~  c #D0252E",
"^  c #D2242E",
"/  c #D2272E",
"(  c #D4242D",
")  c #D6252E",
"_  c #D9252F",
"`  c #DB262F",
"'  c #D2282E",
"]  c #D7282E",
"[  c #D22530",
"{  c #D52630",
"}  c #D72630",
"|  c #D82630",
" . c #DE2630",
".. c #DF2833",
"X. c #E02730",
"o. c #E32830",
"O. c #E22930",
"+. c #E22932",
"@. c #E62833",
"#. c #E92831",
"$. c #EA2831",
"%. c #EB2831",
"&. c #EA2832",
"*. c #ED2832",
"=. c #E92834",
"-. c #F22932",
";. c #F62A32",
":. c #F02B34",
">. c #F72B34",
",. c #F92B34",
"<. c #FA2B34",
"1. c #FA2B36",
"2. c #FB2B36",
"3. c #F92C34",
"4. c #FA2C35",
/* pixels */
"v v v v v v v v v v v b # w A v v v v v c v v v v v v v v P l # y P n n c v v v v v v c c v v v v v ",
"4.4.1.4.4.4.4.4.1.,.,.G # k ) 4.4.1.1.4.1.1.1.4.1.4.1.1.4.-.A # S  .1.2.4.4.4.4.4.4.4.1.1.1.1.1.1.1.",
"L L L L L L L L H X.G X $ j G _ K L L L L L L L L L L L +.B o 4 h J ) H L L L L L L L L L L L L L L ",
"M m M m m M M M h / M < $ j H / h M M M M M M B M m m B ] 9 3 , m W J h M M m M M M m M M M B V M m ",
"C C C C S C C S M ( V < $ g K ( M S C C C C C C C C C S ) p 2 , h W T m S C C S S C C C C C C C C C ",
"C C C C Z C C C m ) B ; $ g H ( m C C C C C C C C C C S ] i 2 , h W T m C C C V C C C C C C C C C C ",
"C C C C C C C C m ) V ; $ g H / M C C C C C C C C C C S _ i 2 , h W T m C C V C B C C C C C C C C C ",
"C C C C C C C C M ( V ; $ g H / M S C C C C C C C C S S } i 2 , m W T B S C V Z Z C C C C C C C C C ",
"C V Z C V V C S m ) B ; $ g K / h M m m m m m m M M m B ) p 2 , h T T h m m m m m M m m m m m m M m ",
"S S S S S Z S S Z ) V ; $ g H &.( } ( } } ) ) } ) ) ) _ ..9 2 , m T +./ ) ( ) ) [ ( } ) ) ) ) ) ) ) ",
"_ _ | _ _ _ _ _ } +.m 1 # g f M B B B V B B B V B B V V m 9 3 , h g B C B V B B V V V V B V B V V V ",
"a a a a a a a a a r e q > q q 1 1 < ; ; < 1 1 1 1 1 1 < 0 e 3 > e 0 1 1 < = < 1 1 1 1 1 < 1 1 1 1 < ",
"+ # # # # + # # + # # # # # # # + # & % # # # # # # # # # # # # # # # # # > # # + # # # # # # # # # ",
"' / / / ' / / / ' / ' ' / / / / } R > w Y / / ' / / / / ' ' ' ' / / Q | U # x R / / / / / / / / / / ",
"&.&.&.&.&.&.&.&.&.&.&.&.&.&.&.-.:.S # x F *.*.&.&.&.&.&.&.&.&.&.&.&.;.+.g # h L -.&.&.&.&.&.&.&.&.&.",
"Z Z Z B B Z B Z Z Z Z Z B Z h T G   % s D } S M Z B Z Z B Z Z B Z m / A . % f H ( A Z Z Z B Z B B Z ",
"V B C C S V V S C C C C C C m T H = % s D  .C C C C C C C C B V C M / V = $ g K ] m B V C C C C C C ",
"C C C C C S V V C C C C C Z m T H * % s D _ C C C C C C C C V C C M ) B < $ g H / M V V C V C C C C ",
"C C C C C B V V C C C C C S m T G * % s C  .S B C C C C C C C V C M ) V < $ j H ] M V C V C V V C C ",
"C C C C C C V B C C C C C C m T I = % s F _ S V C C C C C C C C C m ) B < $ j K / C C C C C V V C C ",
"M M M M M M M M M M M M M M h T L = % s D | B m M M M M B M m M M h ' V ; $ g K ( h M M M M M M M M ",
"G G G G G H G G G G G G G H F ) I * & a F @.H G G G G K K G G G K F ` C < $ g L ` F K G G G G H G G ",
"Q Q Q Q / Q Q Q Q Q Q Q Q Q W / S 0 # d M T Q Q Q Q Q Q Q Q Q Q Q Q Q g 0 O k C Q Q Q Q Q Q Q Q Q Q ",
"6 6 6 6 6 6 6 6 6 6 6 6 - - 6 6 8 r % y u 6 6 6 6 6 6 6 6 6 6 - - 6 6 9 q % a 9 6 6 6 6 6 6 6 6 6 6 ",
"+ + o + + + + + o + + @ 5 , + + # o O o + + + + O o o # o + > 3 > o $ + + O O o # o # o + o # o + + ",
"c v c v c c c c c b n b # w n v c b n c c c c c c b c c v A l # y P b v c v v c v c c c v c c v c c ",
"1.,.,.,.,.1.1.1.1.;.-.U # k ) >.1.,.1.,.1.,.4.1.1.,.,.1.4.*.A # S @.,.1.1.1.,.,.1.,.1.1.1.1.1.,.1.1.",
"L L L L L L L L H ..G * $ j G  .K L L L L L L L L L L J +.Z # 3 h J ) H L L J L L J L L L L L L L L ",
"m B M M M M M M h / m < $ g H ( h B M m M m M m M M N C ) r 3 , m W L h M B M m M M M M B M M M M M ",
"Z C C C V C C C M ) B ; $ g H ) M V V C C C S S C C C S ) i 2 , h W T M S C Z C V V C Z C C Z C C B ",
"C C C C C C C C m ) B ; $ g H ) B C S V C C B C C C C S ) i 2 , h T T m C V C C S V C C Z C B C C C ",
"C C C C C C C C m ) B = $ g K ) m C C C C C C C C C C C _ i 2 , m W T m C C S V C C C V V C C C C C ",
"C C C C B C C S M _ V ; @ g K ) m S B V S V V S S S B S } i 2 , m E T m S S C C C C V S V V S C C C ",
"M m m M m m M M h / V ; $ j H / h M M m M m m m M m m B ] i 2 , h T T f M m m m m m m m M m m M m m ",
") ) ) ) ) ) ) ) ( &.m < $ g G @./ } } [ ( ( | } | ( ( |  .r 3 , m T &.E ) ) ) ] ) | ) } / ) ) } ) ) ",
"B V V V V V B B B m r q $ e p M V B B S B V V V B V V V m 9 3 , h f B C C C B B C B B V V V V B V V ",
"1 1 1 1 < 1 1 1 1 1 e 0 > 0 q 1 1 1 ; < < 1 1 1 1 1 1 1 0 q 3 > q q 1 1 1 ; < 1 1 1 1 1 1 1 1 < 1 1 ",
"# + # # # # # # # # # # # # # # # # % % # # # # + + # # # # # # # # # # # > # # # # # # + # # + # # ",
"/ / ' ' ) ' ' ' ' ' ' ' ' ' ' ' ] R > w Y ' / ' [ / / / / / / / / ' Q ] U # d R / ' ' ' / / [ / ' ' ",
"&.&.&.&.&.&.&.&.&.&.&.&.&.&.&.-.:.S # d F *.*.*.&.&.&.&.&.%.&.&.&.&.>.+.j # k Y -.&.&.&.*.&.&.&.&.&.",
"Z Z Z Z Z Z B M B B Z Z Z S h T I   & s S | Z Z Z Z Z Z Z Z Z B Z m / N . % g G / m Z Z Z Z Z Z M Z ",
"V V S Z S V S V C C C C Z C m T I = & s D  .S V C C C C C C V C V m ) V = $ g K / m V B V S S V C C ",
"S V V B B V S V C C C C V S m T L = % s D _ S V C C Z C C B C C Z M ) B < $ g H ( m S S S V V V C C ",
"V S S B B S V S C C B C Z Z m R I = % s F | S V C C B S V C C C C M / B ; $ g H ( m V V V S V S C C ",
"S V C C V S V V V V V B C S m T I = & s D _ S C C C C C V V C V C M ) B < $ j H ) M C C C C C C S C ",
"M M M M M M M M M M M M B B h T I = % s F _ B m M M M M M M M M B h / B < $ j H / h M M M M M M m M ",
"G H G G G G G H H H H G G H F / I * & s C &.H G H G G G H G G H H F X.V ; @ g L _ F H G G H G G G K ",
"Q Q Q Q Q Q Q Q Q E Q Q Q Q E ( S 6 # d B T Q W Q Q Q Q Q Q Q Q Q Q / f 0 # k C Q Q Q Q Q Q Q Q Q E ",
"- - - - - - - - - - - - - - - - 7 e O t u - - - - 6 - 6 - - - - - - - 7 q # a 9 - - - 6 - - - - - - ",
"5 2 5 5 5 5 5 5 5 5 5 5 5 2 5 5 4 : & & : 5 2 4 5 5 4 2 5 5 5 4 5 3 5 4 > % & 4 5 2 2 4 2 4 5 5 4 e "
};
