/* XPM */
static char *result[] = {
/* columns rows colors chars-per-pixel */
"50 50 199 2 ",
"   c #000000",
".  c #170205",
"X  c #000D13",
"o  c #000E18",
"O  c #1F0E13",
"+  c #001B1B",
"@  c #00151E",
"#  c #1E161A",
"$  c #250000",
"%  c #2B0000",
"&  c #3C0000",
"*  c #25191A",
"=  c #001C24",
"-  c #002525",
";  c #00242A",
":  c #002A2C",
">  c #0C2627",
",  c #132E2F",
"<  c #052F33",
"1  c #043035",
"2  c #0F3034",
"3  c #19373A",
"4  c #2F292A",
"5  c #212527",
"6  c #213536",
"7  c #2B3738",
"8  c #333B3C",
"9  c #383535",
"0  c #490200",
"q  c #520000",
"w  c #5E0014",
"e  c #710000",
"r  c #7D0001",
"t  c #670112",
"y  c #730A1B",
"u  c #722B0E",
"i  c #591220",
"p  c #7F0F20",
"a  c #741521",
"s  c #751824",
"d  c #7F1C27",
"f  c #651C24",
"g  c #512E31",
"h  c #49393A",
"j  c #4F3030",
"k  c #77242D",
"l  c #7B3B2B",
"z  c #7A3623",
"x  c #663537",
"c  c #6F2C33",
"v  c #69433B",
"b  c #7C4538",
"n  c #023C41",
"m  c #193C40",
"M  c #313E40",
"N  c #273D41",
"B  c #3C4142",
"V  c #384648",
"C  c #2F4343",
"Z  c #444345",
"A  c #5A5C5D",
"S  c #545253",
"D  c #4B4B4D",
"F  c #674843",
"G  c #624F51",
"H  c #615756",
"J  c #5D696C",
"K  c #616263",
"L  c #686868",
"P  c #6E6F70",
"I  c #7A7B7C",
"U  c #757779",
"Y  c #6F797B",
"T  c #8C000C",
"R  c #90000C",
"E  c #8C0013",
"W  c #960016",
"Q  c #8D2900",
"!  c #963707",
"~  c #933A16",
"^  c #BF3D00",
"/  c #880B22",
"(  c #9C0225",
")  c #940B25",
"_  c #9C0A26",
"`  c #960021",
"'  c #831B25",
"]  c #871626",
"[  c #9D1227",
"{  c #9F1C28",
"}  c #951526",
"|  c #A20226",
" . c #A30C26",
".. c #A50D29",
"X. c #A30028",
"o. c #A51228",
"O. c #AA1A2C",
"+. c #A21828",
"@. c #89282A",
"#. c #992728",
"$. c #89312F",
"%. c #8A2D30",
"&. c #A5262A",
"*. c #A8292B",
"=. c #AB352D",
"-. c #A9382E",
";. c #B03B2E",
":. c #AB3F30",
">. c #BF4504",
",. c #A7441E",
"<. c #8D422C",
"1. c #93442D",
"2. c #9B472E",
"3. c #974B36",
"4. c #8C4532",
"5. c #AD4B28",
"6. c #B3462C",
"7. c #B8512E",
"8. c #AA4D31",
"9. c #A04F39",
"0. c #B64531",
"q. c #B44C31",
"w. c #BB4C33",
"e. c #AD5136",
"r. c #B35133",
"t. c #BD5435",
"y. c #BF5837",
"u. c #C04401",
"i. c #C04B1C",
"p. c #C14D23",
"a. c #C24F28",
"s. c #C1512B",
"d. c #C25025",
"f. c #C25635",
"g. c #C45937",
"h. c #C95B37",
"j. c #C55C39",
"k. c #CA5D39",
"l. c #D1613D",
"z. c #833F44",
"x. c #864C48",
"c. c #945C50",
"v. c #9A655B",
"b. c #866466",
"n. c #8C6F72",
"m. c #8A7978",
"M. c #C96F53",
"N. c #CA7155",
"B. c #CB755A",
"V. c #C66142",
"C. c #CD7D64",
"Z. c #CD7F6A",
"A. c #D4927B",
"S. c #7B8081",
"D. c #858B8C",
"F. c #868788",
"G. c #9D8C89",
"H. c #939495",
"J. c #969899",
"K. c #9B9C9D",
"L. c #999597",
"P. c #9FA3A4",
"I. c #A3A3A4",
"U. c #A6A9AA",
"Y. c #AAABAC",
"T. c #ACAFB0",
"R. c #AFB2B3",
"E. c #B2B4B5",
"W. c #B4B7B8",
"Q. c #B8BABB",
"!. c #D69985",
"~. c #DCAD9C",
"^. c #DAA088",
"/. c #E3B69E",
"(. c #E4B69B",
"). c #E6BBA2",
"_. c #E1B9AB",
"`. c #E0B7A9",
"'. c #E8C4AF",
"]. c #E7C3AF",
"[. c #E6C4B5",
"{. c #EAC9B6",
"}. c #BEC2C3",
"|. c #C1C4C4",
" X c #C4C7C8",
".X c #C6C9CA",
"XX c #C9CDCD",
"oX c #CFD2D3",
"OX c #D2D5D6",
"+X c #D5D9DA",
"@X c #D9DCDD",
"#X c #D4D7D8",
"$X c #EFDCCF",
"%X c #F0DCD1",
"&X c #E9CEC1",
"*X c #F5E9DE",
"=X c #F3E3D8",
"-X c #F7ECE0",
";X c None",
/* pixels */
";X;X;X;X;X;X;X;X;X;X;X;X;X;X;X;X;X;X;X;X;X;X;X;X;X;X;X;X;X;X;X;X;X;X;X;X;X;X;X;X;X;X;X;X;X;X;X;X;X;X",
";X;X;X;X;X;X;X;X;X;X;X;X;X;X;X;X;X;X;X;X;X;X;X;X;X;X;X;X;X;X;X;X;X;X;X;X;X;X;X;X;X;X;X;X;X;X;X;X;X;X",
";X;X;X;X;X;XQ.7 L A A A A A A A Z I ;X;X;X;X;X;X;X;X;X;X;X;X;X;XJ.9 K A A A A A A L 7 U.;X;X;X;X;X;X",
";X;X;X;X;X;XE.  4             *   K ;X;X;X;X;X;X;X;X;X;X;X;X;X;XF.  #             4   L.;X;X;X;X;X;X",
";X;X;X;X;X;XQ.  m = = = = = = 1   J ;X;X;X;X;X;X;X;X;X;X;X;X;X;XD.  3 - : - - ; - C   P.;X;X;X;X;X;X",
";X;X;X;XY.E.G.Q 3.1.1.1.1.1.1.3.! c.Y.Y.|.;X;X;X;X;X;X;X;XXXU.E.b.e k s s s s s a k e n.E.U.OX;X;X;X",
";X;X;X X    Q l.h.k.k.k.k.k.k.k.l.7..   I ;X;X;X;X;X;X;X;XJ.    T O. .o.o.o.o.o.o. .O.r     Y.;X;X;X",
";X;X;XXX  n 4.k.f.s.i.7.a.f.s.f.j.r.h   D.;X;X;X;X;X;X;X;XI.  8 ] | _ _ _ ( _ _ _ [ ..d V   W.;X;X;X",
";X;X;XQ.& j 2.k.f.N.A.B.B.N.N.j.j.t.x % m.;X;X;X;X;X;X;X;XL.  g #.*.&.&.*.&.*.*.&.[ ..] g   I.;X;X;X",
"+X  @ z k.f.j.f.i._.=X$X'./.(.M.7.j.g.k.e.5   J.;X;XE.  + '  ._ w.j.f.g.g.g.f.j.w.[ _ [ [ o.y ,   .X",
"+X  ; l k.f.V.V.s.`.=X%X'./.(.M.p.k.f.k.e.4   K.;X;XE.  > @. . .w.j.g.g.g.g.f.j.w.+._ [ [ o.a 6   .X",
"+X  ; l h.f.f.u.^ `.*X%X'./.).M.d.j.f.j.e.2   K.;X;XW.  ; k | ( w.j.g.g.g.g.f.j.w.( ( ..[ o.a 6   .X",
"+X  ; l k.i.!.&X[.[.].].A.M.C.j.g.g.g.j.y.e.5.v.F.F.b.T / :.t.w.f.j.g.g.g.g.g.j.g.w.w.0._ ..a 6   .X",
"+X  ; l k.u.~.-X=X[.(.(.B.^ f.g.j.g.g.g.f.j.k.,.    e o.| w.k.j.g.g.g.g.g.g.g.g.g.g.k.0._ ..a 3   .X",
"+X  ; l k.>.~.-X=X{.).].C.i.V.g.g.g.g.g.g.g.k.2.: : k | ` 0.j.f.g.g.g.g.g.g.g.g.g.f.j.0._ ..s 6   .X",
"+X  ; l k.p.!._._.~.^.^.N.d.j.j.g.g.g.g.g.f.k.8.i i @.;.=.w.j.j.g.g.g.g.g.g.g.g.g.g.k.0._ ..a 6   .X",
"+X  : l k.g.d.>.u.i.p.p.f.j.g.g.g.g.g.g.g.f.j.0. .| 0.k.j.j.f.j.g.g.g.g.j.f.g.g.g.f.h.0._ ..s 6   |.",
"+X  @ z k.f.j.j.j.j.j.j.g.g.g.g.g.g.g.g.g.g.j.0.( ( ;.j.f.j.g.g.g.f.g.g.g.g.g.g.g.g.j.w._ ..y ,   |.",
"+X. N b f.y.g.j.g.g.g.g.g.g.g.g.g.g.g.g.g.f.j.6. ._ 6.j.g.g.g.g.g.j.g.f.g.g.g.g.g.f.j.0.) _ k V   .X",
";X;X;X|.  9 1.k.f.g.g.g.g.g.g.g.g.g.g.g.g.j.j.g.f.f.f.g.g.g.g.g.g.g.g.j.g.g.f.k.7.+.O.' h   Y.;X;X;X",
";X;X;XXX  1 <.k.f.g.g.g.g.g.g.g.g.g.g.g.g.g.g.g.g.j.g.g.g.g.g.g.g.g.j.f.f.j.f.k.w.[ | p 7   E.;X;X;X",
";X;X;X.X  2 <.k.f.g.g.g.g.g.g.g.g.g.g.g.g.g.g.g.g.g.g.g.g.g.g.g.g.g.f.j.j.j.f.j.w.[  ./ 8   E.;X;X;X",
";X;X;X.X  1 $.k.g.g.g.g.g.g.g.g.g.g.g.g.g.g.g.g.g.g.g.g.g.g.g.g.g.g.g.g.j.f.f.j.w.[  .' 8   E.;X;X;X",
";X;X;XXX  6 4.k.y.g.g.g.g.g.g.g.g.g.g.g.j.g.g.g.g.g.g.g.g.g.g.g.g.g.g.j.f.j.f.j.w.[ | ' C   E.;X;X;X",
";X;X;X.X    ~ k.j.j.f.j.g.g.g.g.g.g.g.g.g.g.g.g.g.g.g.g.g.g.g.g.g.g.g.g.g.g.f.k.w._ o.r X   T.;X;X;X",
";X;X;XOXK Y v.6.8.y.j.f.g.g.g.g.g.g.g.g.g.g.g.g.g.g.g.g.g.g.g.g.g.g.g.g.g.f.t.f.0.#.R x.S.A }.;X;X;X",
";X;X;X;X;X;XW.  3 2.k.f.g.g.g.g.g.g.g.g.g.g.g.g.g.g.g.g.g.g.g.g.g.g.j.f.j.w.+.| / M   P.;X;X;X;X;X;X",
";X;X;X;X;X;XW.  C 2.k.f.g.g.g.g.g.g.g.g.g.h.g.g.g.g.g.g.g.g.g.g.j.f.j.f.j.f.+.| ] Z   K.;X;X;X;X;X;X",
";X;X;X;X;X;XE.  o ~ V.h.j.f.g.g.g.g.g.g.g.g.g.g.j.g.g.g.g.g.g.g.f.j.g.g.k.f.+...E #   J.;X;X;X;X;X;X",
";X;X;X;X;X;X;X+X@XG.0 v q.k.f.j.g.g.g.g.g.g.g.g.g.g.g.g.g.g.g.g.f.j.f.=.*.#.x % m.+X+X;X;X;X;X;X;X;X",
";X;X;X;X;X;X;X;X;XI.  V 8.j.f.f.g.g.g.g.g.g.g.g.g.g.g.g.g.g.g.g.f.j.f.&.( ) Z   D.;X;X;X;X;X;X;X;X;X",
";X;X;X;X;X;X;X;X;XL.    ,.l.h.g.g.g.g.g.g.g.g.g.g.g.g.g.g.g.g.g.j.k.f.&...W $   U ;X;X;X;X;X;X;X;X;X",
";X;X;X;X;X;X;X;X;X|.H.P.v.! 9.f.g.g.g.g.g.g.g.g.g.g.j.g.f.g.g.g.0.0.6.$.r x.L.J.W.;X;X;X;X;X;X;X;X;X",
";X;X;X;X;X;X;X;X;X;X;X;XD.  Z r.h.y.g.g.g.g.g.g.g.g.g.g.j.g.g.g.*.( ` h   L ;X;X;X;X;X;X;X;X;X;X;X;X",
";X;X;X;X;X;X;X;X;X;X;X;XF.  h 7.k.g.g.g.g.g.g.g.g.g.g.g.g.g.g.g.=.|  .g   K ;X;X;X;X;X;X;X;X;X;X;X;X",
";X;X;X;X;X;X;X;X;X;X;X;XH.  H r.y.t.g.g.g.g.g.g.g.g.g.g.g.f.f.f.*.` } G = U ;X;X;X;X;X;X;X;X;X;X;X;X",
";X;X;X;X;X;X;X;X;X;X;X;X;X;X;XL   v y.j.y.g.g.g.g.g.j.j.j.=. .+.x   D +X;X;X;X;X;X;X;X;X;X;X;X;X;X;X",
";X;X;X;X;X;X;X;X;X;X;X;X;X;X;XP   F t.g.y.g.g.g.g.g.f.f.g.-.( _ x   S ;X;X;X;X;X;X;X;X;X;X;X;X;X;X;X",
";X;X;X;X;X;X;X;X;X;X;X;X;X;X;XS   q s.k.j.g.g.g.g.g.g.k.k.;.|  .q   # ;X;X;X;X;X;X;X;X;X;X;X;X;X;X;X",
";X;X;X;X;X;X;X;X;X;X;X;X;X;X;XXX}.Q.x.u 3.f.g.g.g.j.7.=.;.$.w t Y.}.|.;X;X;X;X;X;X;X;X;X;X;X;X;X;X;X",
";X;X;X;X;X;X;X;X;X;X;X;X;X;X;X;X;X;XD   F j.g.g.f.j.;.( ( x + + @X;X;X;X;X;X;X;X;X;X;X;X;X;X;X;X;X;X",
";X;X;X;X;X;X;X;X;X;X;X;X;X;X;X;X;X;X9   u h.k.g.j.j.0.( o.t     oX;X;X;X;X;X;X;X;X;X;X;X;X;X;X;X;X;X",
";X;X;X;X;X;X;X;X;X;X;X;X;X;X;X;X;X;XD.U m.8.8.q.w.f.8./ E b.S.I @X;X;X;X;X;X;X;X;X;X;X;X;X;X;X;X;X;X",
";X;X;X;X;X;X;X;X;X;X;X;X;X;X;X;X;X;X;X;X@Xo   c | X.k +   .X;X;X;X;X;X;X;X;X;X;X;X;X;X;X;X;X;X;X;X;X",
";X;X;X;X;X;X;X;X;X;X;X;X;X;X;X;X;X;X;X;X#X5   c  . .k -   |.;X;X;X;X;X;X;X;X;X;X;X;X;X;X;X;X;X;X;X;X",
";X;X;X;X;X;X;X;X;X;X;X;X;X;X;X;X;X;X;X;XOX    f  ...a     |.;X;X;X;X;X;X;X;X;X;X;X;X;X;X;X;X;X;X;X;X",
";X;X;X;X;X;X;X;X;X;X;X;X;X;X;X;X;X;X;X;X;X@X;XW.& $ I.;X@X;X;X;X;X;X;X;X;X;X;X;X;X;X;X;X;X;X;X;X;X;X",
";X;X;X;X;X;X;X;X;X;X;X;X;X;X;X;X;X;X;X;X;X;X;XXX    Q.;X;X;X;X;X;X;X;X;X;X;X;X;X;X;X;X;X;X;X;X;X;X;X",
";X;X;X;X;X;X;X;X;X;X;X;X;X;X;X;X;X;X;X;X;X;X;X|.    Y.;X;X;X;X;X;X;X;X;X;X;X;X;X;X;X;X;X;X;X;X;X;X;X",
";X;X;X;X;X;X;X;X;X;X;X;X;X;X;X;X;X;X;X;X;X;X;X@XI.K.OX;X;X;X;X;X;X;X;X;X;X;X;X;X;X;X;X;X;X;X;X;X;X;X"
};
