/* XPM */
static char *result[] = {
/* columns rows colors chars-per-pixel */
"50 50 216 2 ",
"   c #5D3B3E",
".  c #6C3F3D",
"X  c #69442E",
"o  c #6B4634",
"O  c #6E4936",
"+  c #6C423E",
"@  c #684A3E",
"#  c #74423B",
"$  c #71493A",
"%  c #7D4638",
"&  c #7A523E",
"*  c #0E3D4E",
"=  c #0D3947",
"-  c #123F50",
";  c #293F49",
":  c #313F4A",
">  c #4A3F4D",
",  c #683F41",
"<  c #014559",
"1  c #1B4456",
"2  c #1C4558",
"3  c #1F414C",
"4  c #2B434E",
"5  c #37434C",
"6  c #3B444D",
"7  c #3D4247",
"8  c #254553",
"9  c #2A4555",
"0  c #2B4954",
"q  c #234758",
"w  c #254959",
"e  c #2C4B59",
"r  c #264956",
"t  c #344453",
"y  c #3C4552",
"u  c #344A56",
"i  c #3D4A55",
"p  c #324C59",
"a  c #3D4D59",
"s  c #3B535D",
"d  c #365462",
"f  c #3A5663",
"g  c #4B454D",
"h  c #484148",
"j  c #5B4343",
"k  c #51434D",
"l  c #5C4349",
"z  c #5A4A46",
"x  c #414A55",
"c  c #414E5A",
"v  c #454551",
"b  c #43525E",
"n  c #5B504E",
"m  c #644144",
"M  c #6B4242",
"N  c #664B44",
"B  c #734841",
"V  c #6C5244",
"C  c #7C5642",
"Z  c #465662",
"A  c #485762",
"S  c #495965",
"D  c #455A67",
"F  c #566977",
"G  c #4F616E",
"H  c #993D05",
"J  c #973B04",
"K  c #9C450D",
"L  c #9E4607",
"P  c #984818",
"I  c #A34B0B",
"U  c #A04907",
"Y  c #AC530E",
"T  c #A14D13",
"R  c #A65315",
"E  c #A95516",
"W  c #AC5916",
"Q  c #A5551B",
"!  c #A95718",
"~  c #AC5B1A",
"^  c #A45E10",
"/  c #B15C18",
"(  c #BB6A00",
")  c #BF7001",
"_  c #AE621C",
"`  c #A66217",
"'  c #B5651C",
"]  c #BB6F1C",
"[  c #B86819",
"{  c #8C492F",
"}  c #80432E",
"|  c #944E2A",
" . c #924925",
".. c #9E5325",
"X. c #98592C",
"o. c #834937",
"O. c #88573C",
"+. c #945634",
"@. c #9D5E34",
"#. c #935837",
"$. c #A65B24",
"%. c #AA5D21",
"&. c #A45B27",
"*. c #AD6224",
"=. c #AD6429",
"-. c #AD6923",
";. c #BB6D23",
":. c #B36B2C",
">. c #B66826",
",. c #BE7126",
"<. c #BB722B",
"1. c #B5702A",
"2. c #AC6A32",
"3. c #A66736",
"4. c #B47235",
"5. c #BA7333",
"6. c #BE7932",
"7. c #BA7639",
"8. c #B27038",
"9. c #C37400",
"0. c #C87907",
"q. c #C77A16",
"w. c #C16B0E",
"e. c #C26A23",
"r. c #C27425",
"t. c #C2762A",
"y. c #C57B2C",
"u. c #CB7D2D",
"i. c #C57B25",
"p. c #C27B33",
"a. c #CC7F31",
"s. c #9F714F",
"d. c #A1724C",
"f. c #AA744A",
"g. c #A07046",
"h. c #BA7B45",
"j. c #C17F42",
"k. c #D18313",
"l. c #CE822C",
"z. c #CC8434",
"x. c #C4833B",
"c. c #CB8539",
"v. c #CE8A3B",
"b. c #CA8436",
"n. c #D18534",
"m. c #D28937",
"M. c #D38A3A",
"N. c #D18739",
"B. c #BE834A",
"V. c #B7855C",
"C. c #AC8058",
"Z. c #AE8665",
"A. c #B38762",
"S. c #B38D6C",
"D. c #B78B68",
"F. c #BA9377",
"G. c #A28C74",
"H. c #C98B45",
"J. c #D48E40",
"K. c #D49143",
"L. c #CF9144",
"P. c #C18D68",
"I. c #C39271",
"U. c #647A8B",
"Y. c #5CB9BB",
"T. c #64B4B5",
"R. c #6CBABA",
"E. c #68B8B9",
"W. c #73BCBD",
"Q. c #7BBCBD",
"!. c #7BB5B6",
"~. c #7DACAC",
"^. c #7EBFC0",
"/. c #7DC1C2",
"(. c #75C6C9",
"). c #79C6C9",
"_. c #9C9283",
"`. c #98958A",
"'. c #879790",
"]. c #B2A59A",
"[. c #88A8A5",
"{. c #94ADAA",
"}. c #84BCBC",
"|. c #87BAB9",
" X c #97BAB9",
".X c #92B1AE",
"XX c #ACB8B5",
"oX c #C1B5B1",
"OX c #91C0BF",
"+X c #BCC1BF",
"@X c #90BFC0",
"#X c #8CC3C3",
"$X c #83C2C2",
"%X c #95C4C4",
"&X c #9DC5C4",
"*X c #9CC8C9",
"=X c #92C9C9",
"-X c #A3C6C6",
";X c #AACBCB",
":X c #A5C7C6",
">X c #B3CACB",
",X c #BACDCD",
"<X c #B5C2C1",
"1X c #B3CFD0",
"2X c #B6D1D3",
"3X c #BED0CF",
"4X c #C6C7C7",
"5X c #C3D2D3",
"6X c #CCD4D4",
"7X c #CDD7D9",
"8X c #CADADB",
"9X c #D4D9DA",
"0X c #DAD9DA",
"qX c #D7DEE1",
"wX c #D8E1E3",
"eX c None",
/* pixels */
"eXeXeXeXeXeXeXeXeXeXeXeXeXeXeXeXeXK R %.*.=.>.:.:.:.:.*.Q eXeXeXeXeXeXeXeXeXeXeXeXeXeXeXeXeXeXeXeXeX",
"eXeXeXeXeXeXeXeXeXeXeXeXK %.:.p.z.M.M.M.m.z.y.y.y.z.M.M.M.M.b.5.*.T eXeXeXeXeXeXeXeXeXeXeXeXeXeXeXeX",
"eXeXeXeXeXeXeXeXeXU *.a.M.m.u.<.2.@.#.% # m m m m m B o.+.@.:.p.z.m.x.=.T eXeXeXeXeXeXeXeXeXeXeXeXeX",
"eXeXeXeXeXeXeXI ;.v.v.<.&.o.m g t q w w 8 p e p p e e q q 9 v l % ..;.b.K.:.L eXeXeXeXeXeXeXeXeXeXeX",
"eXeXeXeXeXeX_ l.v.,.| m y 0 p u i x x y y x i y x i x i x x a p 8 5 m P ] H.J.~ eXeXeXeXeXeXeXeXeXeX",
"eXeXeXeXK e.c.c.%.m e p a x i i i i c c c b Z Z b b b b c i i i 6 t u ; M Q y.L.<.eXeXeXeXeXeXeXeXeX",
"eXeXeXK [ v.b.| 6 e x i i u a b Z S S S S S S S S S S G S S Z b i 6 i 6 0 v  .;.L.y.eXeXeXeXeXeXeXeX",
"eXeXeXY x.x.P 4 a x i i a b S S S f e q q 0 u u e e w d D S S S S b a 5 y a u { e.v.>.eXeXeXeXeXeXeX",
"eXeXH <.v.$.: t x i i b S S b r 5 z & @.` ` 8.8._ ` X.C n p d Z S S S a y i i u | y.J.U eXeXeXeXeXeX",
"eXeXI x.'   u x i i Z S S p h O.1.) l.B.S.Z.[ ' Z.S.h.q.9.-.C t D S S S b i x p k W v.<.eXeXeXeXeXeX",
"eXH >.a. .4 i i x S S A 0 O <.0.V.]. XOX)..X( ] ~.(.Q.|.`.h.9.2.z s S A S Z i x e % y.M.U eXeXeXeXeX",
"eXH p.t.. 8 i i Z S A 8 % ,.l.].,X;X;X*X=X[.0.p.[.)./.).(.Q._.9.<.@ p S S S a i p g ! M.=.eXeXeXeXeX",
"eXL a.1.> t i b S S 0 $ i.x.oX8X5X,X+X:X#X[.q.6.|.).^.^.^./.(.'.( 6.j s S S S i x u | y.<.eXeXeXeXeX",
"eXI z.2.t y x A S b h 7.0.].wX6X5X,X3XOXOX[.( x.~./././.^.^.$X).`.9.8.4 A S S a x e % y.p.eXeXeXeXeX",
"eXT b.@.8 y c S S 8 O.0.S.6X0X0X6X5X,XOX#X[.) B.!./././././././.W.f.l.C e S S b x e . r.p.eXeXeXeXeX",
"eXR z.@.8 y c S b 5 2.9.XX6X6X0X9X1X+XOX%X X) h.@X/./././././.Q.Y.'.0.3.; S S Z i e , y.p.eXeXeXeXeX",
"eXE n.+.8 i b S a k t.x.<X5X5X9X3X;X*X:X;X{.9.V.{.}././././.W.T.E.!.7.6.h s G b x p + 6.p.eXeXeXeXeX",
"eXE m.+.t v b S 0 N q.V.>X3X5X,X;X;X;X,X=XXXy.] `.=X$X/./.W.T.E./.R.C.l.@ p G b x 0 + i.6.eXeXeXeXeX",
"eXR m...y a b S 8 $ q.D.;X,X:X&X*X1X5X:X2X+Xk.B. X*X#X$XW.T.R./.W.Y.G.q.& r S b x e M <.<.eXeXeXeXeX",
"eXK z.&.y i b S r V q.S.:X@X|.%X*X3X;X5X8X<X) D.;X;X%X}.T.E.$XR.E.).G.0.O.3 S S x e + y.5.eXeXeXeXeX",
"eXH z.=.v i a S 0 N q.D.}.}.|.#X2X*X5X0X9X4X) F.>X>XOXR.Q.$XR.T.^.(._.k.O.8 S S x e . u.<.eXeXeXeXeX",
"eXeXy.<.k p c A u z [ f.R.W.}.+X.X,X8X7XwX4X( F.2XOXQ.OX#XR.T.).^.(._.( C 9 S Z x 0 % u.5.eXeXeXeXeX",
"eXeX<.t.j p c S p @ [ 1.V.A.V.h.<.D.P.P.I.P.] h.D.V.A.D.A.A.A.A.A.A.7.] X.p S S x e % u.:.eXeXeXeXeX",
"eXeX%.a.$ 0 c S b g V @ O O O @ V X X o X o V @ o O O o o $ O o O o V V z b S Z i e . n.:.eXeXeXeXeX",
"eXeXQ z.o.q x A S Z f f d d f d d f f d d f s f d d f f f f f f f f f f D S S Z x e o.n.:.eXeXeXeXeX",
"eXeXT z.#.q x A S S S S S S S S S S S S S S S S S S S S S S G D S S S S S S S Z i 9 { n.=.eXeXeXeXeX",
"eXeXK u.@.9 i Z S S S S S S S S S S S S S S S A S S S S S S D A S S S S S S S Z i u | m.%.eXeXeXeXeX",
"eXeXJ u.:.y i b S Z D S S S S S S S S S S S S S S S S S S S S S S S D S S S S Z i t | M.%.eXeXeXeXeX",
"eXeXeXr.<.g u c S F F S S S S S S S S S S S S D A S S S S A S S S S Z S S S S Z i t ..N.! eXeXeXeXeX",
"eXeXeX>.t.l p x F U.F S D A S S S S D S S S S S S D S S S D S S S S S S Z S S b i i &.N.eXeXeXeXeXeX",
"eXeXeX~ y.B w x S G S a i A S D S S A S A S S S S S S S A D S S S S S S S S S x u v $.N.eXeXeXeXeXeX",
"eXeXeXT u.O.q x t i i i i S S S S S S S S S D S S S S S S S S S S S D S S S S x u g %.c.eXeXeXeXeXeX",
"eXeXeXH u.@.q x i i i i Z S S S S S S A S S S S S S D S S A S S S S S S S S A i p k ~ c.eXeXeXeXeXeX",
"eXeXeXeXt.2.: a i Z S Z D S S S S S D S S S S S S S S A S S S S S D S A S S A i p l ' p.eXeXeXeXeXeX",
"eXeXeXeX:.<.> a i Z S S S S S S S S S D S S S A S S S S D S S S S D S S A S b i e l ' 6.eXeXeXeXeXeX",
"eXeXeXeX%.7., p i x S S S S S Z S A S S S S D S S S S S S S S S S S S S S S i i e m ,.<.eXeXeXeXeXeX",
"eXeXeXeXQ a.B w i i S S S S S S S S S S S D S S D A D S S S S A S A S S S Z i i p M t.:.eXeXeXeXeXeX",
"eXeXeXeXT u.#.q x i Z S S D S S A S S S S S S S S S S S S S S S S S D S S a y x e # u.:.eXeXeXeXeXeX",
"eXeXeXeXeXu.@.9 i i a Z S S S S S S S S S S S A S S S S A S S S S S S S Z y 5 i e % l.:.eXeXeXeXeXeX",
"eXeXeXeXeXt.:.: i i i i S S Z S D S S S S A S S S S S A S S S D S S S Z a a 5 i 9 o.n.=.eXeXeXeXeXeX",
"eXeXeXeXeX>.<.k u i i 6 Z S S S S S S S S A S S S S S S S S S S S S b i i i 6 i e | n.=.eXeXeXeXeXeX",
"eXeXeXeXeX*.y.M e x i 5 i a S S S S S S S S S S S S S b S S S S Z a i i i i 5 i p | m.&.eXeXeXeXeXeX",
"eXeXeXeXeXQ u.o.q x i 5 i t i Z S S S S S S S S S S S b D A b a i i i i i i 5 i t ..N.eXeXeXeXeXeXeX",
"eXeXeXeXeXeXu.+.9 x a t t a i i y b b b Z Z Z D Z Z b y a a y a i y u i a y 5 i y &.M.eXeXeXeXeXeXeX",
"eXeXeXeXeXeX<.%.i x x 6 6 x x x 5 i i x i u i a i i x 6 i x x x i v v i x i 7 i v %.z.eXeXeXeXeXeXeX",
"eXeXeXeXeXeXR R > < w * * q 2 2 1 1 1 1 2 3 1 2 2 2 1 3 1 2 1 2 2 < 1 1 2 1 = < v R / eXeXeXeXeXeXeX",
"eXeXeX7.7.j.8.4.f.s.d.d.d.s.d.d.d.d.d.d.d.g.d.d.d.d.s.g.d.d.d.d.d.d.g.d.d.d.g.d.f.8.8.j.j.7.5.p.eXeX",
"! e.y.a.J.J.J.v.b.v.v.v.v.M.v.v.v.v.N.v.v.v.v.v.v.b.v.v.z.z.N.v.v.N.v.M.v.v.v.u.y.c.v.M.J.J.M.r.e.! ",
"eX' ;.;.t.,.<.] >.;.;.;.,.<.,.,.,.;.,.,.r.r.<.;.;.' ;.r.;.e.;.;.] ] t.y.t.y.r.r.r.,.r.;.;.] >./ / eX",
"eX! / ~ ~ W R R E R E E E E E E E E E E E E W E R R R ! ! ! ! ! R R ! ~ ~ / ~ ~ ! ! E E R R R E E eX"
};
