/* XPM */
static char *_057434f16d34aaf8832d98073907740120FXdxH0oWSjBKR[] = {
/* columns rows colors chars-per-pixel */
"50 50 27 1 ",
"  c #888888",
". c #8B8B8B",
"X c gray55",
"o c #929292",
"O c #959595",
"+ c #9A9A9A",
"@ c #9F9F9F",
"# c gray64",
"$ c gray65",
"% c gray66",
"& c #AFAFAF",
"* c gray70",
"= c #B7B7B7",
"- c #B9B9B9",
"; c gray75",
": c #C0C0C0",
"> c #C5C5C5",
", c #CBCBCB",
"< c gray81",
"1 c LightGray",
"2 c gray83",
"3 c gray86",
"4 c #DDDDDD",
"5 c gray89",
"6 c #E4E4E4",
"7 c #E7E7E7",
"8 c #EFEFEF",
/* pixels */
"4443123444432,,13331211,11,11,111,2241>,,,,>,,-XOo",
"386444666665312255434323323113314246431,,222,1>X#o",
"4643224444342,,244323211,211111,1,2331>,,,,,,,;.oo",
"354,>>,,,,>,:---,>,>>>:>>-**=:::;;;-;-;--;--=-&ooo",
"353,::::::;:-&&*;;:::::::%$#*==*==&&&&=====*&*%o+X",
"353>:>:::::>-%&=>:::::>::%$$*=====*&&*====-=**%oOo",
",4,:==--====-;;====-;---;***-;--==***===*%&%$$@XOX",
",2,=&&&*&&&&=::;&&&========-:>;-========*$%$+@OXoX",
",1,=**&&&&&&-::;&*&=-=-=====;::;========*#$#@@+XoX",
"111=%%***=-=--;-************=-==**=========&@@@XOX",
"241=$$*-=;::-======&&*&&&&*&&&&&&&*=====-:>=@#@XOo",
"241*$$&==;>:;======&&&&*&&&&&&&&&&======-::*@#@XOX",
"232=%%&=*=-;=*=***==--=---===--=-=**&*==-:>-#$@XOX",
",31-&**&&&&&&*&&&&*::::::::>:::::>*$$&==-::-$%#.oX",
"122-&&*&&&*&&&&&**=;;::;:>::::>::>*$$&-=;:>-$&#.oX",
",42=&&&&&&&&***&&%*;;;;;;;;-;;-;--*%&&=*--;*#$@XoX",
"22,-&&&&&*&&*==*$$%======&&&&&&%$$&=-*&&&&&%+@OoOo",
"122-&&*&&&&&*=-*$$%-=====*&*&&&&%$*-==&**&*%+@+oOo",
",2,-%*&*&&*&***&$$%=*****&&&&*&%$$&**&&%&**$@@+o+o",
">1,&$$%&*%$$$##@####@#@##$%%$%%$#$+OO+@@#%%%$$#o+X",
",1,&$$&*&&%%$###@#######$%$$%%&$#$+OO+@@#%%%%%#XOo",
">,;&#$%%%%$%##@#@@@#@@@#$$%$$$$###@oO+@@#$$$$$#oOo",
"XOo.XXoXXXXoXXXXXXXX.XXX....XXXoooOooooXXoooXoXXoX",
".o.X...XX.........XX..XX....XX.XoXoooooXoXXooXXXo.",
"oooXXXXXXXoXXOXooXX.XXXX..XXXXoooooOOooooooOooOXoo",
",1>,1,,11,,,,211111,,,oXo144312111,::,1,222,::,231",
"1421422222224433333122OXo466444433,,,1232441,,,453",
",211122222212433333111OXo3664333331>>,222342,,1453",
"=;====-;;=&*=;;;;;-&&%XXX,21,>>:;;---=-=----===-:-",
"&=&&&&*==&#$%=*===*@@@XXX,11>;:-*====*&&&&&&&&&%=&",
"&*&&&&*=-&%%*-===-*#$#X.o,1,>::;====-*&&&&&&*&&*=*",
";:;-;-=**&%%%***;;-$%$oXo,22:--=======*==;-=&&&&=&",
":,::>>=&&%%%%*&=:>;&&%ooo121;*==========-:>-*&&&=&",
":,::::=&&&$$%*&*::;%&%oXo,21;======-====;::-&&&*=&",
";:;---=***=-=;---;=$$#ooo132>-;*&&&&&*===-;=***&=*",
"=;=======;:::::;*=*##@XXo143>;:*$%$$$&=========&=&",
"=;==-====;::::::=-*###ooo133>;:*#$$$$*-====-===&=&",
"*-*=*=*=*->::::;*=&@@@XXX,42;--*&&&&&&*=**=*=**&=&",
"&=*&&*&&&=::::>;&&%+++XXX,1,=&&*-===-*&&&&&&*&&*=*",
"&=&&&&&&&->>::>-&*&+++XXO,,1=%&======*&&&*&&&&&&=*",
"*-*****&&=;-----&&%+++XXo>2,;=---;======*&**==*&=%",
"=;====*&&&&&*&&&%%$+++ooo,11::::::-==;::-&&=;:-$&$",
"=:=-===&****&**&%%$O+OoXo,1,>>:::>--=->>;*&->:;$&%",
"&-&*&*&%%%&%%&%%%%$@#@ooo>,,;-=;-;=**=--=%%*-==#&$",
"+#+++O++++#@#++@$%%&*%ooO;>:$+@%&%%$$$@@@@#@+O++@+",
"+#++@+@++@###@@#&%&&&&ooO;>,%@@%&&&%%$#####@+@+@#+",
"+@+OO++OO+@@++O@$##$$#ooo*-=#++$%$###@+@@+@++OO+@+",
"XOXoooXoXooXXoXXXX..........XXXXoOXXXoXoX....X..XX",
"o@OOOOOOOOOOOOOOOOOoooooooooOOO+++OOOOOOOoooooooOX",
"oXoXoooXoXXooXoXoXXXXXXXXXXXXXXooooooXooX..XXXXXXX"
};
