/* XPM */
static char *ad0dff2ec36f4ab09c62b6d4aba001497qnhZdLr4d2Swk2E[] = {
/* columns rows colors chars-per-pixel */
"50 50 144 2 ",
"   c None",
".  c #010000",
"X  c #0B0000",
"o  c #00030B",
"O  c #06090A",
"+  c #0A0D0E",
"@  c #130000",
"#  c #1C0101",
"$  c #1A0609",
"%  c #15090C",
"&  c #1E0A0C",
"*  c #020E11",
"=  c #090F11",
"-  c #000019",
";  c #091215",
":  c #00171A",
">  c #0B1719",
",  c #001B1D",
"<  c #161818",
"1  c #240101",
"2  c #2C0101",
"3  c #340202",
"4  c #3A0203",
"5  c #300708",
"6  c #2B1719",
"7  c #001E21",
"8  c #001829",
"9  c #0F2024",
"0  c #1C272C",
"q  c #2F262A",
"w  c #2E282C",
"e  c #332024",
"r  c #262B30",
"t  c #28383D",
"y  c #353439",
"u  c #430303",
"i  c #4C0404",
"p  c #4B0801",
"a  c #470708",
"s  c #530404",
"d  c #5C0505",
"f  c #520C0B",
"g  c #5C0D0E",
"h  c #4A1919",
"j  c #531210",
"k  c #620707",
"l  c #6A0707",
"z  c #640C0E",
"x  c #6D0909",
"c  c #740505",
"v  c #7A0605",
"b  c #7B0807",
"n  c #750A0A",
"m  c #7A0B0B",
"M  c #780F10",
"N  c #671715",
"B  c #741214",
"V  c #7E1011",
"C  c #003D4B",
"Z  c #1F3941",
"A  c #39444B",
"S  c #374A51",
"D  c #3C4B52",
"F  c #3C5159",
"G  c #41535B",
"H  c #45585F",
"J  c #495A5F",
"K  c #445C64",
"L  c #495C63",
"P  c #445F68",
"I  c #495E68",
"U  c #46616A",
"Y  c #4B646C",
"T  c #4D6770",
"R  c #4E6973",
"E  c #526B75",
"W  c #800606",
"Q  c #890707",
"!  c #830B0B",
"~  c #8C0C0B",
"^  c #940B0A",
"/  c #9D0B0B",
"(  c #8C1719",
")  c #811B1A",
"_  c #941011",
"`  c #A30D0C",
"'  c #AC0E0D",
"]  c #B40F0E",
"[  c #BC0F0E",
"{  c #AB100F",
"}  c #B7100F",
"|  c #BC100F",
" . c #AC1212",
".. c #B31212",
"X. c #BB1110",
"o. c #C60F0F",
"O. c #C2100F",
"+. c #CB110F",
"@. c #C61110",
"#. c #CB1110",
"$. c #D11312",
"%. c #577680",
"&. c #597A86",
"*. c #5F7E8A",
"=. c #5E8C9B",
"-. c #628591",
";. c #698E9B",
":. c #748D96",
">. c #6B919E",
",. c #6392A1",
"<. c #6E95A3",
"1. c #6698A8",
"2. c #6D9BAA",
"3. c #739CAB",
"4. c #7AA7B7",
"5. c #7FB0C1",
"6. c #92A9B2",
"7. c #90ADB8",
"8. c #83B2C3",
"9. c #8CBECF",
"0. c #85BFD2",
"q. c #A3B9C1",
"w. c #8BC3D6",
"e. c #8EC5D8",
"r. c #8DCBDF",
"t. c #92C5D6",
"y. c #95CBDE",
"u. c #A9C0C8",
"i. c #BAD1D9",
"p. c #94CEE1",
"a. c #98CFE1",
"s. c #9BD1E3",
"d. c #A3D1E2",
"f. c #B2D4E1",
"g. c #BBDFED",
"h. c #C0DBE5",
"j. c #CBE2EB",
"k. c #DFEEF4",
"l. c #DAF0FA",
"z. c #E2EDF1",
"x. c #EBF3F6",
"c. c #F1FBFF",
"v. c #FEFFFE",
"b. c #FAFFFF",
/* pixels */
"                                                                                                    ",
"                                                                                                    ",
"                                                                                                    ",
"                                                                                                    ",
"                                      2 1 . . . . . . X 1 2                                         ",
"                                  # # . . u s s i i i 4 . . . 1 2                                   ",
"                                # @ . c ` [ [ [ [ o.[ ] / W s . . #                                 ",
"                                X . ^ +.+.#.#.#.#.#.#.#.#.+.[ / s . 1                               ",
"                              1 . b #.@.@.@.@.O.O.@.@.@.@.@.#.#.| i X 1                             ",
"                              X . { #.@.@.@.@.+.#.#.#.#.@.@.@.@.$.' X .                             ",
"                            1 . 4 } +.@.@.@.+.+. .( B z g j a j N ) h = $                           ",
"                            # . d | #.@.@.#.O.b . . . * O o 8 - . . . X < >                         ",
"                            @ . n @.#.@.@.+.V o r T ;.3.2.7.u.q.6.:.E C . . O                       ",
"                            X . b O.#.@.+. .: @ *.p.s.p.g.b.v.v.v.c.k.i.<.Z + +                     ",
"                            X . ~ #.@.@.+.~ % # >.y.t.0.f.v.v.v.v.v.v.v.l.1.. O                     ",
"                        2 1 . X / #.O.@.+.! o 6 &.t.s.t.e.h.z.z.z.x.x.x.j.p.U . ;                   ",
"                @ # X . . . . 1 ' #.@.@.#.! . y U <.w.y.a.r.p.p.y.s.d.s.w.e.&.. =                   ",
"              X X . s v Q s . 4 { #.@.@.#._ . w U K E >.4.7.5.5.4.2.,.;.-.E F . .                   ",
"              X . ^ o.O.#.b . i ] #.@.@.+. .. & K R K F H U R T U L L J H U S . .                   ",
"            1 . k $.$.$.+.x . s } #.@.@.+.} $ X D R Y T U U U U U Y Y Y R E t . o                   ",
"            1 X ` | ` ' { d . i ] #.@.@.#.#.m . e P R Y T Y E Y Y R T Y Y S . .                     ",
"            . 3 ~ c l n x 1 . i / #.@.@.@.#.} 5 . q G U U U Y U P J G A 0 . . .                     ",
"          @ . 4 x n n m n # . s ~ @.@.@.@.@.#.' i . . * 9 9 , : o . . . . X . .                     ",
"          # . u m m n m n # . k n } #.@.@.@.@.#.} m g 4 2 2 4 4 u f z V B 2 . .                     ",
"          @ . s m m n m x # . z n ~ #.O.@.+.@.@.#.+.O... . .....X.X.@.o.~ 4 . X                     ",
"          @ . d m n n m n # . k m x ` +.@.@.@.@.@.+.#.#.$.+.#.#.#.#.#...n 4 . .                     ",
"          @ . d m n n n n # . k m n n } #.@.@.#.@.@.@.@.@.@.@.@.@.X.#.` n i . .                     ",
"          @ . d m m n m x # . k m m n m | #.O.#.@.@.@.@.@.@.#.@.#.@.@.^ n i . X                     ",
"          @ . d m m n m n # . k m n m n ! | #.@.#.@.#.@.@.#.@.#.@.#.} m n d . .                     ",
"          X . k m n n m x # . k m n n n x m } #.O.@.@.@.@.O.@.@.#.#.` x m s . .                     ",
"          X . d m n n m n # . k m n m n m n m ` @.#.+.@.#.@.#.+.#.X.m n ! s . .                     ",
"          @ . d m m n m x X . z m n m n n m n x ! ` [ X.@.@.@.} { m x m m s . .                     ",
"          # . i m n n m x . . l m m n n m n n m n l n m ! ! ! n z n m n m s . .                     ",
"          @ . 1 n m n m l . X l m n m n n m n n n m n n x n n n m m n n m i . .                     ",
"            X . s n m m k . # x m n m n n n m m m m m m m m m m m m n m n u . X                     ",
"            X X . 4 s x d . 1 n m n n n m n m l s k l n n n n x k x m n n 4 . X                     ",
"              X X . . # # . 2 n m n n m n n n 4 . @ # 2 3 3 3 @ 4 x m n n 2 .                       ",
"                    @ . X . 3 n m n m n n n n # X @ . . . . 4 d n m n m l @ .                       ",
"                          . 2 n m n m n m m x # .       X @ n m n m n m k . .                       ",
"                          . 1 x m n n n n m l X .       . X x m n n n m i . X                       ",
"                          . @ l m n m n n m x . .       . . l m m n m x 1 . @                       ",
"                          . . k m m n n n m k . .       X . i n n m n i . X                         ",
"                          @ . u m m m m m ! d . @         . . 4 s s 2 . .                           ",
"                            . . i x l n n k 3 . @         . X . . . . X X                           ",
"                            X X . # 1 2 3 @ . .                 # #                                 ",
"                                @ X X . . X X                                                       ",
"                                                                                                    ",
"                                                                                                    ",
"                                                                                                    ",
"                                                                                                    "
};
